<svg width="56" height="58" viewBox="0 0 56 58" fill="none" xmlns="http://www.w3.org/2000/svg">
<rect width="55.8945" height="57.3" transform="translate(0.00268555 0.540039)" fill="#FFB900" fill-opacity="0.1"/>
<path fill-rule="evenodd" clip-rule="evenodd" d="M36.4645 21.5812V22.811C37.1097 22.811 37.7284 23.0673 38.1847 23.5235C38.6409 23.9797 38.8972 24.5985 38.8972 25.2437V37.4073C38.8972 38.0525 38.6409 38.6713 38.1847 39.1275C37.7284 39.5837 37.1097 39.84 36.4645 39.84H19.4354C18.7902 39.84 18.1714 39.5837 17.7152 39.1275C17.259 38.6713 17.0027 38.0525 17.0027 37.4073V25.2437C17.0027 23.9726 18.0183 22.8195 19.2079 22.4801L32.5879 18.6571C33.0405 18.5278 33.517 18.5052 33.9797 18.5913C34.4425 18.6774 34.879 18.8698 35.2548 19.1533C35.6306 19.4367 35.9355 19.8036 36.1454 20.2249C36.3553 20.6462 36.4645 21.1105 36.4645 21.5812ZM32.2072 29.501C31.7233 29.501 31.2592 29.6932 30.9171 30.0354C30.5749 30.3775 30.3827 30.8416 30.3827 31.3255C30.3827 31.8094 30.5749 32.2735 30.9171 32.6157C31.2592 32.9578 31.7233 33.1501 32.2072 33.1501C32.6911 33.1501 33.1552 32.9578 33.4973 32.6157C33.8395 32.2735 34.0317 31.8094 34.0317 31.3255C34.0317 30.8416 33.8395 30.3775 33.4973 30.0354C33.1552 29.6932 32.6911 29.501 32.2072 29.501ZM34.0317 21.5812C34.0318 21.4954 34.0137 21.4105 33.9786 21.3321C33.9435 21.2538 33.8922 21.1837 33.8281 21.1266C33.764 21.0695 33.6885 21.0266 33.6066 21.0008C33.5247 20.975 33.4383 20.9668 33.353 20.9767L33.2557 20.9962L26.9039 22.811H34.0317V21.5812Z" fill="#FFB900"/>
</svg>
