<svg width="53" height="56" viewBox="0 0 53 56" fill="none" xmlns="http://www.w3.org/2000/svg">
<rect width="52.5838" height="55.3" transform="translate(0.00268555 0.540039)" fill="#3ABDB4" fill-opacity="0.1"/>
<path d="M37.7377 37.2014H36.1267V25.7306C36.1267 25.296 35.9541 24.8792 35.6467 24.5718C35.3394 24.2645 34.9226 24.0919 34.488 24.0919H29.9816C29.873 24.0919 29.7688 24.1351 29.692 24.2119C29.6151 24.2887 29.572 24.3929 29.572 24.5016V37.2014H27.9333V19.2178C27.936 18.9626 27.8806 18.7101 27.7713 18.4794C27.662 18.2487 27.5017 18.0459 27.3024 17.8864C27.0308 17.6746 26.6994 17.5538 26.3552 17.5412C26.011 17.5285 25.6716 17.6245 25.3851 17.8157L17.1917 23.2725C16.967 23.4225 16.7828 23.6257 16.6555 23.8641C16.5283 24.1025 16.462 24.3686 16.4625 24.6388V37.2014H14.8515C14.6397 37.1982 14.4347 37.2754 14.2775 37.4173C14.1204 37.5593 14.0228 37.7555 14.0045 37.9664C13.997 38.0785 14.0127 38.1909 14.0506 38.2967C14.0884 38.4024 14.1476 38.4993 14.2244 38.5812C14.3012 38.6631 14.3941 38.7284 14.4972 38.7729C14.6003 38.8174 14.7115 38.8403 14.8238 38.84H37.7654C37.8777 38.8403 37.9889 38.8174 38.092 38.7729C38.1951 38.7284 38.288 38.6631 38.3648 38.5812C38.4417 38.4993 38.5008 38.4024 38.5387 38.2967C38.5765 38.1909 38.5922 38.0785 38.5847 37.9664C38.5664 37.7555 38.4688 37.5593 38.3117 37.4173C38.1545 37.2754 37.9495 37.1982 37.7377 37.2014ZM20.9689 34.7433C20.9691 34.8557 20.9463 34.9668 20.9018 35.0699C20.8572 35.1731 20.792 35.2659 20.71 35.3428C20.6281 35.4196 20.5313 35.4788 20.4255 35.5166C20.3197 35.5544 20.2073 35.5701 20.0953 35.5627C19.8841 35.5443 19.6878 35.4466 19.5458 35.2892C19.4039 35.1319 19.3268 34.9266 19.3302 34.7147V33.1323C19.3273 32.9206 19.4046 32.7157 19.5465 32.5586C19.6884 32.4015 19.8844 32.3039 20.0953 32.2853C20.2073 32.2779 20.3197 32.2935 20.4255 32.3314C20.5313 32.3692 20.6281 32.4284 20.71 32.5052C20.792 32.5821 20.8572 32.6749 20.9018 32.778C20.9463 32.8812 20.9691 32.9923 20.9689 33.1046V34.7433ZM20.9689 29.0079C20.9691 29.1203 20.9463 29.2314 20.9018 29.3346C20.8572 29.4377 20.792 29.5305 20.71 29.6074C20.6281 29.6842 20.5313 29.7434 20.4255 29.7812C20.3197 29.819 20.2073 29.8347 20.0953 29.8273C19.8842 29.8087 19.688 29.7109 19.5461 29.5536C19.4042 29.3963 19.3271 29.1911 19.3302 28.9793V27.3969C19.3273 27.1852 19.4046 26.9803 19.5465 26.8232C19.6884 26.6661 19.8844 26.5685 20.0953 26.5499C20.2073 26.5425 20.3197 26.5582 20.4255 26.596C20.5313 26.6338 20.6281 26.693 20.71 26.7698C20.792 26.8467 20.8572 26.9395 20.9018 27.0426C20.9463 27.1458 20.9691 27.2569 20.9689 27.3693V29.0079ZM25.0656 34.7433C25.0658 34.8557 25.043 34.9668 24.9985 35.0699C24.9539 35.1731 24.8887 35.2659 24.8068 35.3428C24.7248 35.4196 24.628 35.4788 24.5222 35.5166C24.4165 35.5544 24.304 35.5701 24.192 35.5627C23.9812 35.5443 23.7852 35.4469 23.6432 35.29C23.5013 35.1331 23.424 34.9283 23.4269 34.7167V33.1323C23.4243 32.9208 23.5017 32.7161 23.6435 32.5593C23.7854 32.4024 23.9813 32.3049 24.192 32.2863C24.304 32.2789 24.4165 32.2946 24.5222 32.3324C24.628 32.3702 24.7248 32.4294 24.8068 32.5062C24.8887 32.5831 24.9539 32.6759 24.9985 32.7791C25.043 32.8822 25.0658 32.9933 25.0656 33.1057V34.7433ZM25.0656 29.0079C25.0658 29.1203 25.043 29.2314 24.9985 29.3346C24.9539 29.4377 24.8887 29.5305 24.8068 29.6074C24.7248 29.6842 24.628 29.7434 24.5222 29.7812C24.4165 29.819 24.304 29.8347 24.192 29.8273C23.9813 29.8087 23.7854 29.7112 23.6435 29.5543C23.5017 29.3975 23.4243 29.1928 23.4269 28.9813V27.3969C23.4243 27.1854 23.5017 26.9807 23.6435 26.8239C23.7854 26.667 23.9813 26.5695 24.192 26.5509C24.304 26.5435 24.4165 26.5592 24.5222 26.597C24.628 26.6348 24.7248 26.694 24.8068 26.7708C24.8887 26.8477 24.9539 26.9405 24.9985 27.0437C25.043 27.1468 25.0658 27.258 25.0656 27.3703V29.0079Z" fill="#3ABDB4"/>
</svg>
