<svg width="58" height="56" viewBox="0 0 58 56" fill="none" xmlns="http://www.w3.org/2000/svg">
<rect width="57.075" height="55.3" transform="translate(0.00268555 0.540039)" fill="#6938C1" fill-opacity="0.1"/>
<path d="M40.0777 20.2025V32.6275C40.0777 33.3337 39.7972 34.0109 39.2979 34.5102C38.7985 35.0095 38.1213 35.29 37.4152 35.29H19.6652C18.959 35.29 18.2818 35.0095 17.7825 34.5102C17.2832 34.0109 17.0027 33.3337 17.0027 32.6275V20.2025C17.0027 19.4964 17.2832 18.8192 17.7825 18.3199C18.2818 17.8206 18.959 17.54 19.6652 17.54H37.4152C38.1213 17.54 38.7985 17.8206 39.2979 18.3199C39.7972 18.8192 40.0777 19.4964 40.0777 20.2025ZM32.0902 37.065H24.9902C24.7548 37.065 24.5291 37.1585 24.3626 37.325C24.1962 37.4914 24.1027 37.7172 24.1027 37.9525C24.1027 38.1879 24.1962 38.4137 24.3626 38.5801C24.5291 38.7465 24.7548 38.84 24.9902 38.84H32.0902C32.3256 38.84 32.5513 38.7465 32.7177 38.5801C32.8842 38.4137 32.9777 38.1879 32.9777 37.9525C32.9777 37.7172 32.8842 37.4914 32.7177 37.325C32.5513 37.1585 32.3256 37.065 32.0902 37.065Z" fill="#6938C1"/>
</svg>
