<svg width="55" height="56" viewBox="0 0 55 56" fill="none" xmlns="http://www.w3.org/2000/svg">
<rect width="54.3429" height="55.3" transform="translate(0.00268555 0.540039)" fill="#4A82D8" fill-opacity="0.1"/>
<path d="M21.4307 21.6004L20.1898 25.1472H34.1584L32.9175 21.6004C32.7036 20.9918 32.1283 20.5829 31.4817 20.5829H22.8666C22.22 20.5829 21.6447 20.9918 21.4307 21.6004ZM16.8855 25.3754L18.559 20.5972C19.2009 18.7667 20.9267 17.54 22.8666 17.54H31.4817C33.4215 17.54 35.1474 18.7667 35.7892 20.5972L37.4628 25.3754C38.5658 25.8318 39.3455 26.9206 39.3455 28.19V37.3186C39.3455 38.1601 38.6657 38.84 37.8241 38.84H36.3027C35.4611 38.84 34.7813 38.1601 34.7813 37.3186V35.7972H19.567V37.3186C19.567 38.1601 18.8871 38.84 18.0455 38.84H16.5241C15.6826 38.84 15.0027 38.1601 15.0027 37.3186V28.19C15.0027 26.9206 15.7824 25.8318 16.8855 25.3754ZM21.0884 30.4722C21.0884 30.0687 20.9281 29.6817 20.6428 29.3964C20.3575 29.111 19.9705 28.9508 19.567 28.9508C19.1635 28.9508 18.7765 29.111 18.4912 29.3964C18.2058 29.6817 18.0455 30.0687 18.0455 30.4722C18.0455 30.8757 18.2058 31.2627 18.4912 31.548C18.7765 31.8333 19.1635 31.9936 19.567 31.9936C19.9705 31.9936 20.3575 31.8333 20.6428 31.548C20.9281 31.2627 21.0884 30.8757 21.0884 30.4722ZM34.7813 31.9936C35.1848 31.9936 35.5717 31.8333 35.8571 31.548C36.1424 31.2627 36.3027 30.8757 36.3027 30.4722C36.3027 30.0687 36.1424 29.6817 35.8571 29.3964C35.5717 29.111 35.1848 28.9508 34.7813 28.9508C34.3777 28.9508 33.9908 29.111 33.7054 29.3964C33.4201 29.6817 33.2598 30.0687 33.2598 30.4722C33.2598 30.8757 33.4201 31.2627 33.7054 31.548C33.9908 31.8333 34.3777 31.9936 34.7813 31.9936Z" fill="#4A82D8"/>
</svg>
