<svg width="55" height="58" viewBox="0 0 55 58" fill="none" xmlns="http://www.w3.org/2000/svg">
<rect width="54.0671" height="57.3" transform="translate(0.00268555 0.539795)" fill="#248743" fill-opacity="0.1"/>
<path d="M15.9231 18.5398C14.5858 18.5398 13.5027 19.6242 13.5027 20.9602V30.158H28.9936V20.9602C28.9936 19.6229 27.9092 18.5398 26.5731 18.5398H15.9231ZM28.9936 32.0943H13.5027V35.483C13.5027 36.8191 14.587 37.9034 15.9231 37.9034H16.4072C16.4072 36.8763 16.8152 35.8913 17.5415 35.165C18.2678 34.4387 19.2528 34.0307 20.28 34.0307C21.3071 34.0307 22.2921 34.4387 23.0184 35.165C23.7447 35.8913 24.1527 36.8763 24.1527 37.9034H28.0254C28.2822 37.9034 28.5285 37.8014 28.71 37.6199C28.8916 37.4383 28.9936 37.192 28.9936 36.9352V32.0943Z" fill="#248743"/>
<path d="M22.2162 37.9034C22.2162 37.3899 22.0122 36.8974 21.6491 36.5342C21.2859 36.1711 20.7934 35.9671 20.2799 35.9671C19.7663 35.9671 19.2738 36.1711 18.9107 36.5342C18.5475 36.8974 18.3435 37.3899 18.3435 37.9034C18.3435 38.417 18.5475 38.9095 18.9107 39.2727C19.2738 39.6358 19.7663 39.8398 20.2799 39.8398C20.7934 39.8398 21.2859 39.6358 21.6491 39.2727C22.0122 38.9095 22.2162 38.417 22.2162 37.9034ZM31.8981 21.4443C31.6413 21.4443 31.395 21.5464 31.2134 21.7279C31.0319 21.9095 30.9299 22.1558 30.9299 22.4125V36.9353C30.9299 37.0471 30.9479 37.1539 30.9841 37.2554C31.145 36.3016 31.657 35.4426 32.4193 34.8473C33.1817 34.2519 34.1392 33.9635 35.1036 34.0386C36.0679 34.1137 36.9692 34.5469 37.6302 35.2531C38.2912 35.9592 38.664 36.8872 38.6753 37.8544C39.7765 37.6285 40.6401 36.6474 40.5652 35.4236C40.2764 30.6968 38.6006 26.16 35.7475 22.3803C35.5251 22.0882 35.2379 21.8517 34.9087 21.6893C34.5794 21.5269 34.217 21.4431 33.8499 21.4443H31.8981Z" fill="#248743"/>
<path d="M36.7389 37.9034C36.7389 37.3898 36.5349 36.8973 36.1718 36.5342C35.8087 36.1711 35.3161 35.967 34.8026 35.967C34.289 35.967 33.7965 36.1711 33.4334 36.5342C33.0702 36.8973 32.8662 37.3898 32.8662 37.9034C32.8662 38.417 33.0702 38.9095 33.4334 39.2726C33.7965 39.6358 34.289 39.8398 34.8026 39.8398C35.3161 39.8398 35.8087 39.6358 36.1718 39.2726C36.5349 38.9095 36.7389 38.417 36.7389 37.9034Z" fill="#248743"/>
</svg>
